<?xml version="1.0" encoding="UTF-8"?>
<svg width="52px" height="53px" viewBox="0 0 52 53" version="1.1" xmlns="http://www.w3.org/2000/svg" xmlns:xlink="http://www.w3.org/1999/xlink">
    <title>
        pile-of-poo
    </title>
    <g id="pile-of-poo" transform="translate(1.000000, 1.000000)" fill-rule="nonzero">
        <path d="M18.822331,0.80283672 C33.988567,3.38056687 34.4391025,10.7827054 34.4391025,14.5998584 C40.3011436,17.1769927 39.8943402,20.8070344 39.8943402,23.0921336 C47.9901703,26.4882918 43.3993439,31.8278705 45.4020151,32.5520448 C47.4046863,33.2762192 51.7877594,38.7823511 49.9994249,44.1504648 C48.737606,47.938116 45.6020976,49.940198 44.4553774,49.940198 C39.8943402,50.8987065 25.5968933,50.2614063 16.8048514,49.4630465 C13.1351306,50.9000461 6.64672198,50.4055248 5.37927352,49.2068068 C-1.23584666,45.680307 -1.23584666,36.9325108 6.04292875,33.1275788 C4.85973051,27.6622155 6.54510439,24.8259762 11.2172963,22.2629959 C10.5488891,18.6674301 10.5488891,14.2673345 16.5275431,12.1629493 C16.5275431,6.67106809 18.7926143,7.68004251 17.981689,5.8879825 C16.1184748,1.77047419 17.5381489,0.347283103 18.2961223,0.34132877 C18.3771915,0.340691923 18.7607698,0.79237347 18.822331,0.80283672 Z" id="Shape-Copy" stroke="#FFFFFF" stroke-width="1.2" fill="#000000" stroke-linecap="round"/>
        <path d="M20.5185,6.99945 C21.283,5.80191 18.6781,2.829949 19.5628,3.00763 C31.9864,5.50252 32.7828,13.1535 31.9864,16.48 C37.7203,17.2784 37.8796,22.1351 37.2425,24.4637 C45.8434,26.4596 41.0651,33.9443 42.4986,33.9443 C43.9321,33.9443 49.1882,38.435 47.7547,42.9258 C46.6079,46.5185 44.4099,47.4166 43.4543,47.4166 C39.6316,48.6142 24.0226,47.583 16.6959,46.9177 C13.6378,48.1152 10.64339,48.082 9.52846,47.9156 C-0.98376,45.9197 2.838856,34.9422 9.52846,34.9422 C5.32357,28.1561 10.64339,24.7963 13.8289,23.9647 C10.96194,11.98923 20.0407,15.4821 19.085,13.4862 C17.839,10.88382 19.5628,8.49639 20.5185,6.99945 Z" id="Shape" stroke="#FFFFFF" fill="#A08A57" stroke-linecap="round"/>
        <path d="M33,35.5 L18.5,35.5 C18.3333,37.3333 19.5,41 25.5,41 C31.5,41 33,37.3333 33,35.5 Z" id="Shape" fill="#FFFFFF"/>
        <ellipse id="Oval" fill="#FCFCFC" cx="19" cy="26" rx="4" ry="6"/>
        <ellipse id="Oval" fill="#FCFCFC" cx="32" cy="26" rx="4" ry="6"/>
        <ellipse id="Oval" fill="#000000" cx="32" cy="26" rx="2" ry="4"/>
        <ellipse id="Oval" fill="#000000" cx="19" cy="26" rx="2" ry="4"/>
    </g>
</svg>
